<svg width="109" height="44" viewBox="0 0 109 44" fill="none" xmlns="http://www.w3.org/2000/svg">
<g clip-path="url(#clip0_1_10)">
<path d="M9.52 10.636H17.512L23.272 27.34L28.96 10.636H36.484V34H31.408V16.72H31.3L25.396 34H20.896L14.812 16.72H14.668V34H9.52V10.636ZM49.6482 34.36C48.5682 34.36 47.6802 34.324 46.9842 34.252C46.2882 34.18 45.5442 34.036 44.7522 33.82C43.8882 33.58 43.1922 33.244 42.6642 32.812C42.1362 32.356 41.6922 31.72 41.3322 30.904C40.9722 30.112 40.7922 29.152 40.7922 28.024V22.876C40.7922 21.724 40.9722 20.716 41.3322 19.852C41.6922 18.988 42.1602 18.316 42.7362 17.836C43.2402 17.428 43.9002 17.092 44.7162 16.828C45.5562 16.54 46.3722 16.36 47.1642 16.288C48.0762 16.24 48.9042 16.216 49.6482 16.216C50.7522 16.216 51.6282 16.252 52.2762 16.324C52.9482 16.372 53.6802 16.516 54.4722 16.756C55.3362 17.02 56.0322 17.38 56.5602 17.836C57.1122 18.292 57.5802 18.94 57.9642 19.78C58.3242 20.644 58.5042 21.676 58.5042 22.876V28.024C58.5042 29.104 58.3242 30.052 57.9642 30.868C57.6282 31.684 57.1842 32.32 56.6322 32.776C56.1522 33.184 55.4922 33.52 54.6522 33.784C53.8362 34.024 53.0322 34.18 52.2402 34.252C51.5202 34.324 50.6562 34.36 49.6482 34.36ZM49.6482 31.084C50.6322 31.084 51.3762 31.012 51.8802 30.868C52.3842 30.7 52.7322 30.448 52.9242 30.112C53.1402 29.776 53.2482 29.284 53.2482 28.636V22.048C53.2482 21.088 52.9962 20.416 52.4922 20.032C51.9882 19.648 51.0402 19.456 49.6482 19.456C48.2562 19.456 47.3082 19.648 46.8042 20.032C46.3002 20.416 46.0482 21.088 46.0482 22.048V28.636C46.0482 29.284 46.1442 29.776 46.3362 30.112C46.5522 30.448 46.9122 30.7 47.4162 30.868C47.9202 31.012 48.6642 31.084 49.6482 31.084ZM60.2969 16.576H65.8769L69.6929 28.636L73.3649 16.576H78.6569L72.2489 34H66.9209L60.2969 16.576ZM81.0964 10.276H86.3524V14.524H81.0964V10.276ZM81.0964 16.576H86.3524V34H81.0964V16.576ZM99.8606 34.36C93.6926 34.36 90.6086 32.476 90.6086 28.708V22.444C90.6086 20.26 91.3046 18.676 92.6966 17.692C94.1126 16.708 96.2846 16.216 99.2126 16.216C101.973 16.216 103.989 16.696 105.261 17.656C106.557 18.592 107.205 20.188 107.205 22.444V26.692H95.9006V28.276C95.9006 29.284 96.2606 30.004 96.9806 30.436C97.7006 30.868 98.9966 31.084 100.869 31.084C102.597 31.084 104.541 30.832 106.701 30.328V33.676C104.565 34.132 102.285 34.36 99.8606 34.36ZM102.201 23.704V21.184C102.201 20.608 101.961 20.176 101.481 19.888C101.025 19.6 100.245 19.456 99.1406 19.456C97.8686 19.456 97.0166 19.6 96.5846 19.888C96.1286 20.2 95.9006 20.632 95.9006 21.184V23.704H102.201Z" fill="black"/>
<path d="M27.884 35.433H29.782V36.967H27.884V35.433ZM27.884 37.708H29.782V44H27.884V37.708ZM33.8539 44.13C33.1779 44.13 32.3503 44.065 31.3709 43.935V42.674C32.5756 42.856 33.4119 42.947 33.8799 42.947C34.2786 42.947 34.5733 42.908 34.7639 42.83C34.9546 42.752 35.0499 42.609 35.0499 42.401V42.011C35.0499 41.7943 34.9893 41.6427 34.8679 41.556C34.7466 41.4607 34.5083 41.413 34.1529 41.413H33.3339C32.6666 41.413 32.1509 41.283 31.7869 41.023C31.4229 40.7543 31.2409 40.3643 31.2409 39.853V39.086C31.2409 38.54 31.5009 38.1543 32.0209 37.929C32.5409 37.695 33.3253 37.578 34.3739 37.578C34.7899 37.578 35.5353 37.617 36.6099 37.695V38.904C35.2579 38.8 34.4953 38.748 34.3219 38.748C33.8106 38.748 33.4769 38.7827 33.3209 38.852C33.1823 38.93 33.1129 39.073 33.1129 39.281V39.619C33.1129 39.7317 33.1693 39.8313 33.2819 39.918C33.3946 39.996 33.5593 40.035 33.7759 40.035H34.6079C36.1506 40.035 36.9219 40.5377 36.9219 41.543V42.336C36.9219 42.6393 36.8656 42.9037 36.7529 43.129C36.6403 43.3543 36.4929 43.532 36.3109 43.662C36.1376 43.7833 35.9123 43.8787 35.6349 43.948C35.3663 44.0173 35.0846 44.065 34.7899 44.091C34.5213 44.117 34.2093 44.13 33.8539 44.13ZM41.477 44.13C41.1564 44.13 40.8877 44.117 40.671 44.091C40.4544 44.065 40.2377 44.013 40.021 43.935C39.7784 43.857 39.579 43.7487 39.423 43.61C39.2757 43.4713 39.1544 43.2807 39.059 43.038C38.955 42.7867 38.903 42.4963 38.903 42.167V38.878H37.629V37.708H38.903V35.888H40.801V37.708H42.53V38.878H40.801V41.842C40.801 42.1453 40.827 42.375 40.879 42.531C40.931 42.6783 41.0307 42.7867 41.178 42.856C41.3254 42.9167 41.5507 42.947 41.854 42.947C41.9754 42.947 42.2007 42.9253 42.53 42.882V44.065C42.1227 44.1083 41.7717 44.13 41.477 44.13ZM43.443 42.206H45.471V44H43.443V42.206Z" fill="black"/>
<path d="M7 38.5H25.5V44H0V0H7V38.5Z" fill="black" stroke="black"/>
</g>
<defs>
<clipPath id="clip0_1_10">
<rect width="109" height="44" fill="white"/>
</clipPath>
</defs>
</svg>
